Coordinates
version=1
nRows=8
nColumns=34
inDegrees=yes

Units are S.I. units (second, meters, Newtons, ...)
If the header above contains a line with 'inDegrees', this indicates whether rotational values are in degrees (yes) or radians (no).

endheader
time	pelvis_tilt	pelvis_list	pelvis_rotation	pelvis_tx	pelvis_ty	pelvis_tz	hip_flexion_r	hip_adduction_r	hip_rotation_r	knee_angle_r	ankle_angle_r	subtalar_angle_r	mtp_angle_r	hip_flexion_l	hip_adduction_l	hip_rotation_l	knee_angle_l	ankle_angle_l	subtalar_angle_l	mtp_angle_l	lumbar_extension	lumbar_bending	lumbar_rotation	arm_flex_r	arm_add_r	arm_rot_r	elbow_flex_r	pro_sup_r	arm_flex_l	arm_add_l	arm_rot_l	elbow_flex_l	pro_sup_l
      3.40000000	    -12.64413002	     -1.18678009	     11.08976141	      1.80513194	      0.91264632	     -0.02745404	      6.55678072	     -4.50942344	    -22.88625710	      8.35676956	    -14.73601894	      4.86564669	      0.00000000	     10.84344395	     -5.31857913	     -9.05983393	      6.55786008	    -15.44785740	      8.48759579	      0.00000000	      1.56696871	     -6.69252772	     10.16968768	    158.05088069	     -2.81770819	     43.62878674	     17.64373249	     66.43613060	    126.73171348	      7.17450190	     18.41000833	     82.91707922	     82.46793223
      3.41666670	    -12.80652566	     -1.33557596	     11.43940263	      1.80938879	      0.90864225	     -0.02741748	      6.25593964	     -4.25925401	    -22.64400209	      8.36624958	    -14.33201318	      4.60387201	      0.00000000	     10.69037641	     -5.37199035	     -9.18502996	      6.56521486	    -15.07839335	      8.10694919	      0.00000000	      1.66815151	     -6.62612263	      9.35049962	    158.87863582	     -2.31254873	     43.55392248	     20.24529134	     66.40901796	    126.98397941	      6.47687167	     18.60132895	     84.43411288	     83.02816139
      3.43333330	    -12.95290158	     -1.53237783	     11.61917377	      1.81306372	      0.90397758	     -0.02803307	      5.92359540	     -3.94320620	    -22.25194197	      8.35480823	    -13.33883692	      4.30453001	      0.00000000	     10.53376662	     -5.49178265	     -9.32998469	      6.80631230	    -14.26298429	      7.67777175	      0.00000000	      1.91489872	     -6.53730717	      8.95291499	    159.54490997	     -1.98394369	     43.53839703	     21.04140781	     66.47166677	    126.88670681	      6.42854495	     18.90513870	     84.92823614	     83.21180698
      3.45000000	    -13.16202147	     -1.60886946	     11.54224895	      1.81657357	      0.89937213	     -0.02936753	      5.83371718	     -3.84941303	    -21.67925031	      8.61092826	    -12.51711028	      3.69556034	      0.00000000	     10.39407657	     -5.44405694	     -9.29120162	      7.13876759	    -13.16493338	      7.02022113	      0.00000000	      1.96423278	     -6.46728529	      8.42600848	    160.02933210	     -2.15360992	     43.65630188	     22.98836114	     66.91687310	    126.75351805	      5.46763949	     20.02338865	     87.04498654	     83.99391811
      3.46666670	    -13.36864089	     -1.65030562	     11.37943859	      1.82078196	      0.89458515	     -0.03106805	      5.63488521	     -3.76296407	    -21.25587445	      8.67933708	    -11.35145081	      3.29364839	      0.00000000	     10.23293335	     -5.37611002	     -9.24188220	      7.55988098	    -11.67489013	      6.39373764	      0.00000000	      2.28969389	     -6.46789031	      8.34691541	    159.96725497	     -2.60436574	     43.68070338	     23.97754105	     67.49158432	    125.97929185	      5.00582335	     20.99296626	     88.41689598	     84.80001667
      3.48333330	    -13.51950216	     -1.66895735	     11.16051429	      1.82516790	      0.88980331	     -0.03289584	      5.34026833	     -3.69563150	    -20.88234932	      8.65206940	    -10.13906305	      2.98084904	      0.00000000	     10.00352232	     -5.29657658	     -9.13745434	      7.95962782	    -10.01214981	      5.87362304	      0.00000000	      2.56312685	     -6.42850589	      8.53761816	    159.72257890	     -3.28126016	     43.71702401	     25.08382410	     68.17218000	    124.79479567	      4.64599667	     21.54416773	     90.12931686	     85.58465379
      3.50000000	    -13.62923940	     -1.65404982	     10.94615251	      1.82992194	      0.88573261	     -0.03481514	      4.91611628	     -3.65448236	    -20.46241841	      8.53191606	     -8.88799887	      2.64513529	      0.00000000	      9.68626407	     -5.15766621	     -8.99913153	      8.29468702	     -8.31192905	      5.36513882	      0.00000000	      2.84899713	     -6.30383652	      8.86279983	    159.09491875	     -4.18570559	     43.84362944	     26.60985237	     68.93358393	    123.15407561	      4.23051720	     21.91579342	     92.04655239	     86.33936750
      3.51666670	    -13.67710499	     -1.60987050	     10.77816151	      1.83459621	      0.88224450	     -0.03721004	      4.40141370	     -3.63392007	    -19.98757787	      8.38488553	     -7.70285135	      2.23852037	      0.00000000	      9.29590468	     -4.95454169	     -8.88622378	      8.55497919	     -6.90794611	      4.79470664	      0.00000000	      3.06496243	     -6.10175300	      9.20319681	    157.97753042	     -5.33394811	     44.02806047	     28.92860296	     69.74179746	    121.13092664	      3.59759904	     22.24518140	     94.15439242	     87.05595712
